<svg width="482" height="290" xmlns="http://www.w3.org/2000/svg" xmlns:xlink="http://www.w3.org/1999/xlink" overflow="hidden"><defs><clipPath id="clip0"><path d="M399 215 881 215 881 505 399 505Z" fill-rule="evenodd" clip-rule="evenodd"/></clipPath><clipPath id="clip1"><path d="M400 216 880 216 880 504 400 504Z" fill-rule="evenodd" clip-rule="evenodd"/></clipPath><clipPath id="clip2"><path d="M400 216 880 216 880 504 400 504Z" fill-rule="evenodd" clip-rule="evenodd"/></clipPath><clipPath id="clip3"><path d="M433 230 866 230 866 441 433 441Z" fill-rule="evenodd" clip-rule="evenodd"/></clipPath><clipPath id="clip4"><path d="M433 230 866 230 866 441 433 441Z" fill-rule="evenodd" clip-rule="evenodd"/></clipPath><clipPath id="clip5"><path d="M400 216 880 216 880 504 400 504Z" fill-rule="evenodd" clip-rule="evenodd"/></clipPath><clipPath id="clip6"><path d="M400 216 880 216 880 504 400 504Z" fill-rule="evenodd" clip-rule="evenodd"/></clipPath><clipPath id="clip7"><path d="M400 216 880 216 880 504 400 504Z" fill-rule="evenodd" clip-rule="evenodd"/></clipPath><clipPath id="clip8"><path d="M400 216 880 216 880 504 400 504Z" fill-rule="evenodd" clip-rule="evenodd"/></clipPath><clipPath id="clip9"><path d="M400 216 880 216 880 504 400 504Z" fill-rule="evenodd" clip-rule="evenodd"/></clipPath><clipPath id="clip10"><path d="M400 216 880 216 880 504 400 504Z" fill-rule="evenodd" clip-rule="evenodd"/></clipPath><clipPath id="clip11"><path d="M400 216 880 216 880 504 400 504Z" fill-rule="evenodd" clip-rule="evenodd"/></clipPath><clipPath id="clip12"><path d="M400 216 880 216 880 504 400 504Z" fill-rule="evenodd" clip-rule="evenodd"/></clipPath><clipPath id="clip13"><path d="M400 216 880 216 880 504 400 504Z" fill-rule="evenodd" clip-rule="evenodd"/></clipPath><clipPath id="clip14"><path d="M400 216 880 216 880 504 400 504Z" fill-rule="evenodd" clip-rule="evenodd"/></clipPath><clipPath id="clip15"><path d="M400 216 880 216 880 504 400 504Z" fill-rule="evenodd" clip-rule="evenodd"/></clipPath><clipPath id="clip16"><path d="M400 216 880 216 880 504 400 504Z" fill-rule="evenodd" clip-rule="evenodd"/></clipPath><clipPath id="clip17"><path d="M400 216 880 216 880 504 400 504Z" fill-rule="evenodd" clip-rule="evenodd"/></clipPath><clipPath id="clip18"><path d="M400 216 880 216 880 504 400 504Z" fill-rule="evenodd" clip-rule="evenodd"/></clipPath><clipPath id="clip19"><path d="M400 216 880 216 880 504 400 504Z" fill-rule="evenodd" clip-rule="evenodd"/></clipPath><clipPath id="clip20"><path d="M400 216 880 216 880 504 400 504Z" fill-rule="evenodd" clip-rule="evenodd"/></clipPath></defs><g clip-path="url(#clip0)" transform="translate(-399 -215)"><g clip-path="url(#clip1)"><path d="M433.5 388.5 865.5 388.5M433.5 335.5 865.5 335.5M433.5 283.5 865.5 283.5M433.5 230.5 865.5 230.5" stroke="#D9D9D9" stroke-linejoin="round" stroke-miterlimit="10" fill="none"/></g><g clip-path="url(#clip2)"><path d="M433.5 440.5 865.5 440.5" stroke="#D9D9D9" stroke-linejoin="round" stroke-miterlimit="10" fill="none" fill-rule="evenodd"/></g><g clip-path="url(#clip3)"><path d="M464.5 346.5 526.5 419.5 587.5 409.5 649.5 398.5 711.5 388.5 772.5 377.5 834.5 388.5" stroke="#4472C4" stroke-width="3" stroke-linecap="round" stroke-linejoin="round" stroke-miterlimit="10" fill="none"/></g><g clip-path="url(#clip4)"><path d="M464.5 272.5 526.5 314.5 587.5 304.5 649.5 304.5 711.5 293.5 772.5 251.5 834.5 272.5" stroke="#ED7D31" stroke-width="3" stroke-linecap="round" stroke-linejoin="round" stroke-miterlimit="10" fill="none"/></g><g clip-path="url(#clip5)"><text fill="#595959" font-family="Yu Gothic,Yu Gothic_MSFontService,sans-serif" font-weight="400" transform="translate(415.34 444)">0</text></g><g clip-path="url(#clip6)"><text fill="#595959" font-family="Yu Gothic,Yu Gothic_MSFontService,sans-serif" font-weight="400" transform="translate(415.34 392)">5</text></g><g clip-path="url(#clip7)"><text fill="#595959" font-family="Yu Gothic,Yu Gothic_MSFontService,sans-serif" font-weight="400" transform="translate(408.667 339)">10</text></g><g clip-path="url(#clip8)"><text fill="#595959" font-family="Yu Gothic,Yu Gothic_MSFontService,sans-serif" font-weight="400" transform="translate(408.667 287)">15</text></g><g clip-path="url(#clip9)"><text fill="#595959" font-family="Yu Gothic,Yu Gothic_MSFontService,sans-serif" font-weight="400" transform="translate(408.667 234)">20</text></g><g clip-path="url(#clip10)"><text fill="#595959" font-family="Yu Gothic,Yu Gothic_MSFontService,sans-serif" font-weight="400" transform="translate(457.836 461)">17</text></g><g clip-path="url(#clip11)"><text fill="#595959" font-family="Yu Gothic,Yu Gothic_MSFontService,sans-serif" font-weight="400" transform="translate(519.501 461)">18</text></g><g clip-path="url(#clip12)"><text fill="#595959" font-family="Yu Gothic,Yu Gothic_MSFontService,sans-serif" font-weight="400" transform="translate(581.166 461)">19</text></g><g clip-path="url(#clip13)"><text fill="#595959" font-family="Yu Gothic,Yu Gothic_MSFontService,sans-serif" font-weight="400" transform="translate(642.832 461)">20</text></g><g clip-path="url(#clip14)"><text fill="#595959" font-family="Yu Gothic,Yu Gothic_MSFontService,sans-serif" font-weight="400" transform="translate(704.497 461)">21</text></g><g clip-path="url(#clip15)"><text fill="#595959" font-family="Yu Gothic,Yu Gothic_MSFontService,sans-serif" font-weight="400" transform="translate(766.162 461)">22</text></g><g clip-path="url(#clip16)"><text fill="#595959" font-family="Yu Gothic,Yu Gothic_MSFontService,sans-serif" font-weight="400" transform="translate(827.827 461)">23</text></g><g clip-path="url(#clip17)"><path d="M584.5 484.5 610.5 484.5" stroke="#4472C4" stroke-width="3" stroke-linecap="round" stroke-linejoin="round" stroke-miterlimit="10" fill="none" fill-rule="evenodd"/></g><g clip-path="url(#clip18)"><text fill="#595959" font-family="Yu Gothic,Yu Gothic_MSFontService,sans-serif" font-weight="400" transform="translate(612.767 487)">最低</text></g><g clip-path="url(#clip19)"><path d="M647.5 484.5 673.5 484.5" stroke="#ED7D31" stroke-width="3" stroke-linecap="round" stroke-linejoin="round" stroke-miterlimit="10" fill="none" fill-rule="evenodd"/></g><g clip-path="url(#clip20)"><text fill="#595959" font-family="Yu Gothic,Yu Gothic_MSFontService,sans-serif" font-weight="400" transform="translate(676.233 487)">最高</text></g></g></svg>